<?xml version="1.0" encoding="iso-8859-1"?>
<!-- Uploaded to: SVG Repo, www.svgrepo.com, Generator: SVG Repo Mixer Tools -->
<svg fill="#000000" height="800px" width="800px" version="1.1" id="Layer_1" xmlns="http://www.w3.org/2000/svg" xmlns:xlink="http://www.w3.org/1999/xlink" 
	 viewBox="0 0 512 512" xml:space="preserve">
<g>
	<g>
		<path d="M311.652,473.043v16.696c0,9.223,7.473,16.696,16.696,16.696h100.174c9.223,0,16.696-7.473,16.696-16.696v-16.696H311.652
			z"/>
	</g>
</g>
<g>
	<g>
		<path d="M66.783,473.043v16.696c0,9.223,7.473,16.696,16.696,16.696h100.174c9.223,0,16.696-7.473,16.696-16.696v-16.696H66.783z"
			/>
	</g>
</g>
<g>
	<g>
		<path d="M441.848,207.081l-24.195-96.792c-5.587-22.337-25.565-37.94-48.593-37.94h-24.016V55.652
			c0-27.619-22.468-50.087-50.087-50.087h-77.913c-27.619,0-50.087,22.468-50.087,50.087v16.696H142.94
			c-23.022,0-43,15.604-48.587,37.94l-24.201,96.792C30.447,213.492,0,247.905,0,289.391v66.783
			c0,46.032,37.446,83.478,83.478,83.478c5.762,0,339.856,0,345.043,0c46.032,0,83.478-37.446,83.478-83.478v-66.783
			C512,247.905,481.553,213.492,441.848,207.081z M33.391,339.478v-33.391h16.696c21.767,0,40.337,13.956,47.229,33.391H33.391z
			 M169.815,406.261c6.891-19.435,25.462-33.391,47.229-33.391h77.913c21.767,0,40.337,13.956,47.229,33.391H169.815z
			 M328.348,306.087H183.652c-9.223,0-16.696-7.473-16.696-16.696c0-9.223,7.473-16.696,16.696-16.696h144.696
			c9.223,0,16.696,7.473,16.696,16.696C345.043,298.614,337.57,306.087,328.348,306.087z M104.864,205.913l21.88-87.527
			c1.864-7.445,8.521-12.646,16.196-12.646c6.526,0,224.061,0,226.119,0c7.674,0,14.337,5.201,16.201,12.646l21.88,87.527H104.864z
			 M478.609,339.478h-63.924c6.891-19.435,25.462-33.391,47.229-33.391h16.696V339.478z"/>
	</g>
</g>
</svg>